<svg width="326" height="249" viewBox="0 0 326 249" fill="none" xmlns="http://www.w3.org/2000/svg">
    <path opacity="0.1"
        d="M43.5967 160.686L43.5863 160.686C34.707 160.787 26.1136 157.549 19.5092 151.614C12.9091 145.682 8.77646 137.489 7.92868 128.656C7.4353 122.144 8.79016 115.625 11.8375 109.85C14.3797 105.031 18.0134 100.893 22.4304 97.7562V98.3972C22.4304 111.044 27.4542 123.173 36.3967 132.115C45.3393 141.058 57.4679 146.081 70.1145 146.081H311.733C308.856 150.133 305.134 153.531 300.809 156.03C295.544 159.074 289.57 160.68 283.488 160.686M43.5967 160.686H283.488M43.5967 160.686H43.6071L283.487 160.686M43.5967 160.686L283.487 160.686M283.488 160.686C283.488 160.686 283.487 160.686 283.487 160.686M283.488 160.686L283.487 160.686"
        fill="#4B4668" stroke="#FC5B5F" stroke-width="3.65116" />
    <path d="M312.698 140.605H261.581" stroke="#FC5B5F" stroke-width="10.9535"
        stroke-linecap="round" stroke-linejoin="round" />
    <path
        d="M87.3538 87.6628L170.952 10.8731L87.3538 87.6628ZM87.3538 87.6628H165.448L192.359 26.1094C192.36 26.1084 192.36 26.1074 192.361 26.1064C193.244 24.0645 193.606 21.8354 193.415 19.6189C193.223 17.4014 192.484 15.2661 191.264 13.4049C190.043 11.5437 188.379 10.0149 186.422 8.95583C184.464 7.89689 182.275 7.3407 180.049 7.33721C180.049 7.33721 180.049 7.33721 180.049 7.33721L87.3538 87.6628Z"
        fill="#FF9494" stroke="#FC5B5F" stroke-width="3.65116" />
    <path
        d="M97.2791 89.4884H181.256L208.64 26.8344C209.644 24.5142 210.055 21.9809 209.838 19.462C209.621 16.9432 208.781 14.5179 207.395 12.4038C206.008 10.2897 204.119 8.55316 201.895 7.35017C199.671 6.14718 197.184 5.51541 194.656 5.51163C190.83 5.50793 187.142 6.94134 184.323 9.52791L97.2791 89.4884Z"
        stroke="#FC5B5F" stroke-width="10.9535" stroke-linecap="round" stroke-linejoin="round" />
    <path
        d="M276.186 89.4883L294.442 52.9767C295.593 50.7604 297.334 48.9054 299.473 47.6167C301.613 46.328 304.066 45.6558 306.564 45.6744C310.137 45.7033 313.555 47.1431 316.071 49.6803C318.588 52.2176 320 55.6465 320 59.2202V126C320 135.683 316.153 144.97 309.306 151.818C305.916 155.208 301.891 157.897 297.461 159.732C293.031 161.567 288.283 162.512 283.488 162.512H42.5116C32.8281 162.512 23.5413 158.665 16.694 151.818C9.84674 144.97 5.99999 135.683 5.99999 126C5.99999 116.316 9.84674 107.03 16.694 100.182C23.5413 93.3351 32.8281 89.4883 42.5116 89.4883H276.186Z"
        stroke="#FC5B5F" stroke-width="10.9535" stroke-linecap="round" stroke-linejoin="round" />
    <path
        d="M181.256 140.605L210.465 221.916C211.303 224.268 211.567 226.786 211.235 229.26C210.903 231.734 209.984 234.093 208.554 236.14C207.125 238.187 205.228 239.863 203.02 241.028C200.812 242.193 198.357 242.813 195.861 242.837C193.655 242.838 191.475 242.374 189.461 241.474C187.448 240.575 185.647 239.26 184.177 237.616L97.2793 140.605"
        fill="white" />
    <path
        d="M181.256 140.605L210.465 221.916C211.303 224.268 211.567 226.786 211.235 229.26C210.903 231.734 209.984 234.093 208.554 236.14C207.125 238.187 205.228 239.863 203.02 241.028C200.812 242.193 198.357 242.813 195.861 242.837C193.655 242.838 191.475 242.374 189.461 241.474C187.448 240.575 185.647 239.26 184.177 237.616L97.2793 140.605"
        stroke="#FC5B5F" stroke-width="10.9535" stroke-linecap="round" stroke-linejoin="round" />
    <path
        d="M265.233 111.395L287.14 67.5814M9.65115 115.047H42.5116M217.767 184.419H199.512M210.465 193.547H203.163M217.767 67.5814H192.209M210.465 58.4535H203.163"
        stroke="#FC5B5F" stroke-width="10.9535" stroke-linecap="round" stroke-linejoin="round" />
    <g opacity="0.2">
        <path d="M253.987 41.7311V59.9869M244.859 50.859H263.115" stroke="#FC5B5F"
            stroke-width="10.9535" stroke-linecap="round" stroke-linejoin="round" />
    </g>
    <g opacity="0.2">
        <path d="M61.3152 36.2544V54.5102M52.1873 45.3823H70.4431" stroke="#FC5B5F"
            stroke-width="10.9535" stroke-linecap="round" stroke-linejoin="round" />
    </g>
</svg>